<?xml version="1.0" encoding="UTF-8" standalone="no" ?>
<!DOCTYPE svg PUBLIC "-//W3C//DTD SVG 1.1//EN" "http://www.w3.org/Graphics/SVG/1.1/DTD/svg11.dtd">
<svg xmlns="http://www.w3.org/2000/svg" xmlns:xlink="http://www.w3.org/1999/xlink" version="1.1" width="25" height="25" viewBox="0 0 25 25" xml:space="preserve">
<desc>Created with Fabric.js 5.2.4</desc>
<defs>
</defs>
<rect x="0" y="0" width="100%" height="100%" fill="transparent"></rect>
<g transform="matrix(1 0 0 1 12.5 12.5)" id="c8291cff-b3cb-48c6-afed-1338ce85d4b5"  >
<rect style="stroke: none; stroke-width: 1; stroke-dasharray: none; stroke-linecap: butt; stroke-dashoffset: 0; stroke-linejoin: miter; stroke-miterlimit: 4; fill-rule: nonzero; opacity: 1; visibility: hidden;" vector-effect="non-scaling-stroke"  x="-12.5" y="-12.5" rx="0" ry="0" width="25" height="25" />
</g>
<g transform="matrix(Infinity NaN NaN Infinity 0 0)" id="fc17908c-6a62-413f-ad99-e7896048ba55"  >
</g>
<g transform="matrix(0.05 0 0 0.05 12.5 12.5)"  >
<path style="stroke: none; stroke-width: 1; stroke-dasharray: none; stroke-linecap: butt; stroke-dashoffset: 0; stroke-linejoin: miter; stroke-miterlimit: 4; fill-rule: nonzero; opacity: 1;"  transform=" translate(-256, -256)" d="M 478.609 100.174 L 478.609 66.783 L 445.21799999999996 66.783 L 445.21799999999996 33.391 L 411.82699999999994 33.391 L 411.82699999999994 0 L 200.348 0 L 200.348 33.391 L 166.95700000000002 33.391 L 166.95700000000002 66.782 L 133.56600000000003 66.782 L 133.56600000000003 100.173 L 100.17500000000004 100.173 L 100.17500000000004 345.043 L 66.783 345.043 L 66.783 378.434 L 33.391 378.434 L 33.391 411.82500000000005 L 0 411.82500000000005 L 0 478.60800000000006 L 33.391 478.60800000000006 L 33.391 512 L 100.174 512 L 100.174 478.609 L 133.565 478.609 L 133.565 445.21799999999996 L 166.956 445.21799999999996 L 166.956 411.82699999999994 L 411.826 411.82699999999994 L 411.826 378.4359999999999 L 445.21700000000004 378.4359999999999 L 445.21700000000004 345.0449999999999 L 478.60800000000006 345.0449999999999 L 478.60800000000006 311.6539999999999 L 512 311.6539999999999 L 512 100.1739999999999 L 478.609 100.1739999999999 z M 445.217 278.26099999999997 L 411.82599999999996 278.26099999999997 L 411.82599999999996 311.652 L 378.43499999999995 311.652 L 378.43499999999995 345.043 L 233.739 345.043 L 233.739 311.652 L 200.348 311.652 L 200.348 278.26099999999997 L 166.95700000000002 278.26099999999997 L 166.95700000000002 133.565 L 200.348 133.565 L 200.348 100.174 L 233.739 100.174 L 233.739 66.783 L 378.435 66.783 L 378.435 100.174 L 411.826 100.174 L 411.826 133.565 L 445.21700000000004 133.565 L 445.21700000000004 278.26099999999997 z" stroke-linecap="round" />
</g>
</svg>