<?xml version="1.0" encoding="UTF-8" standalone="no" ?>
<!DOCTYPE svg PUBLIC "-//W3C//DTD SVG 1.1//EN" "http://www.w3.org/Graphics/SVG/1.1/DTD/svg11.dtd">
<svg xmlns="http://www.w3.org/2000/svg" xmlns:xlink="http://www.w3.org/1999/xlink" version="1.1" width="20" height="20" viewBox="0.45 0.45 20 20" xml:space="preserve">
<desc>Created with Fabric.js 5.2.4</desc>
<defs>
</defs>
<g transform="matrix(1 0 0 1 10 10)" id="eb552651-48f4-4565-83b0-e253a347bc8d"  >
<rect style="stroke: none; stroke-width: 1; stroke-dasharray: none; stroke-linecap: butt; stroke-dashoffset: 0; stroke-linejoin: miter; stroke-miterlimit: 4; fill: rgb(255,255,255); fill-rule: nonzero; opacity: 1; visibility: hidden;" vector-effect="non-scaling-stroke"  x="-10" y="-10" rx="0" ry="0" width="20" height="20" />
</g>
<g transform="matrix(Infinity NaN NaN Infinity 0 0)" id="21bd85b0-54cb-40f8-955a-835da5635aaa"  >
</g>
<g transform="matrix(NaN NaN NaN NaN 0 0)"  >
<g style=""   >
</g>
</g>
<g transform="matrix(0.17 0 0 0.17 10 10)" id="bf60216c-7b50-46c4-9ee6-cc62ecebd9c6"  >
<path style="stroke: rgb(0,0,0); stroke-width: 0; stroke-dasharray: none; stroke-linecap: butt; stroke-dashoffset: 0; stroke-linejoin: miter; stroke-miterlimit: 4; fill: rgb(0,0,0); fill-rule: nonzero; opacity: 1;" vector-effect="non-scaling-stroke"  transform=" translate(-49.5, -49.5)" d="M 99.5 35.5 C 99.5 38.1667 99.5 40.8333 99.5 43.5 C 98.1667 43.5 96.8333 43.5 95.5 43.5 C 95.5 44.8333 95.5 46.1667 95.5 47.5 C 92.8333 47.5 90.1667 47.5 87.5 47.5 C 87.5 48.8333 87.5 50.1667 87.5 51.5 C 84.8333 51.5 82.1667 51.5 79.5 51.5 C 79.5 52.8333 79.5 54.1667 79.5 55.5 C 76.8333 55.5 74.1667 55.5 71.5 55.5 C 71.5 58.8333 71.5 62.1667 71.5 65.5 C 72.8333 65.5 74.1667 65.5 75.5 65.5 C 75.5 68.1667 75.5 70.8333 75.5 73.5 C 76.8333 73.5 78.1667 73.5 79.5 73.5 C 79.5 76.8333 79.5 80.1667 79.5 83.5 C 80.8333 83.5 82.1667 83.5 83.5 83.5 C 83.5 87.5 83.5 91.5 83.5 95.5 C 80.1667 95.5 76.8333 95.5 73.5 95.5 C 73.5 94.1667 73.5 92.8333 73.5 91.5 C 71.5 91.5 69.5 91.5 67.5 91.5 C 67.5 90.1667 67.5 88.8333 67.5 87.5 C 64.8333 87.5 62.1667 87.5 59.5 87.5 C 59.5 86.1667 59.5 84.8333 59.5 83.5 C 57.5 83.5 55.5 83.5 53.5 83.5 C 53.5 82.1667 53.5 80.8333 53.5 79.5 C 50.8333 79.5 48.1667 79.5 45.5 79.5 C 45.5 80.8333 45.5 82.1667 45.5 83.5 C 43.5 83.5 41.5 83.5 39.5 83.5 C 39.5 84.8333 39.5 86.1667 39.5 87.5 C 36.8333 87.5 34.1667 87.5 31.5 87.5 C 31.5 88.8333 31.5 90.1667 31.5 91.5 C 29.5 91.5 27.5 91.5 25.5 91.5 C 25.5 92.8333 25.5 94.1667 25.5 95.5 C 22.1667 95.5 18.8333 95.5 15.5 95.5 C 15.5 91.5 15.5 87.5 15.5 83.5 C 16.8333 83.5 18.1667 83.5 19.5 83.5 C 19.5 80.1667 19.5 76.8333 19.5 73.5 C 20.8333 73.5 22.1667 73.5 23.5 73.5 C 23.5 70.8333 23.5 68.1667 23.5 65.5 C 24.8333 65.5 26.1667 65.5 27.5 65.5 C 27.5 62.1667 27.5 58.8333 27.5 55.5 C 24.8333 55.5 22.1667 55.5 19.5 55.5 C 19.5 54.1667 19.5 52.8333 19.5 51.5 C 16.8333 51.5 14.1667 51.5 11.5 51.5 C 11.5 50.1667 11.5 48.8333 11.5 47.5 C 8.83333 47.5 6.16667 47.5 3.5 47.5 C 3.5 46.1667 3.5 44.8333 3.5 43.5 C 2.16667 43.5 0.833333 43.5 -0.5 43.5 C -0.5 40.8333 -0.5 38.1667 -0.5 35.5 C 11.5 35.5 23.5 35.5 35.5 35.5 C 35.5 32.8333 35.5 30.1667 35.5 27.5 C 36.8333 27.5 38.1667 27.5 39.5 27.5 C 39.5 24.1667 39.5 20.8333 39.5 17.5 C 40.8333 17.5 42.1667 17.5 43.5 17.5 C 43.5 14.8333 43.5 12.1667 43.5 9.5 C 44.8333 9.5 46.1667 9.5 47.5 9.5 C 47.5 7.5 47.5 5.5 47.5 3.5 C 48.8333 3.5 50.1667 3.5 51.5 3.5 C 51.5 5.5 51.5 7.5 51.5 9.5 C 52.8333 9.5 54.1667 9.5 55.5 9.5 C 55.5 12.1667 55.5 14.8333 55.5 17.5 C 56.8333 17.5 58.1667 17.5 59.5 17.5 C 59.5 20.8333 59.5 24.1667 59.5 27.5 C 60.8333 27.5 62.1667 27.5 63.5 27.5 C 63.5 30.1667 63.5 32.8333 63.5 35.5 C 75.5 35.5 87.5 35.5 99.5 35.5 Z" stroke-linecap="round" />
</g>
</svg>